<svg xmlns="http://www.w3.org/2000/svg" width="48" height="42" fill="none"><path fill="#fff" d="M5.372.108c-.654.139-1.465.416-1.987.677C1.821 1.552.952 2.612.265 4.561.017 5.28 0 5.393 0 6.43c0 .987.025 1.174.232 1.794.132.383.34.897.463 1.142.754 1.476 2.583 3.18 3.402 3.18.489 0 .497.213.091 1.713-1.713 6.378-1.216 11.965 1.482 16.638 1.217 2.104 2.856 4.11 4.784 5.856 3.36 3.017 6.58 4.55 10.81 5.113 1.168.164 3.916.18 5.05.041 6.141-.75 11.522-4.07 14.965-9.232 3.004-4.502 4.155-9.99 3.203-15.276a52.38 52.38 0 0 0-.546-2.487c-.472-1.933-.497-2.088-.364-2.243.058-.065.223-.122.364-.122.902 0 2.4-1.476 3.31-3.263.638-1.24.754-1.696.754-2.854-.008-.93-.033-1.093-.281-1.835-.48-1.42-1.134-2.504-1.846-3.042C45.35 1.16 44.15.565 43.406.328c-1.366-.432-2.31-.432-3.584-.008-1.515.498-2.574 1.224-3.443 2.357-.29.384-.555.702-.588.718-.033.008-.91-.392-1.962-.905-1.043-.506-2.342-1.085-2.88-1.273-4.669-1.639-9.536-1.598-14.254.115-.447.163-1.622.7-2.615 1.19-.985.49-1.83.89-1.863.89-.041 0-.29-.294-.546-.653C10.876 1.674 9.949.98 8.608.467 7.392.002 6.382-.112 5.372.108Zm21.231 1.803c2.657.375 4.859 1.158 7.392 2.626 1.515.88 1.928 1.076 2.334 1.093.373.016.571-.172.704-.637.223-.774 1.241-1.99 2.243-2.658.612-.416 1.225-.555 2.433-.555 1.606 0 1.962.171 3.353 1.574.447.44.761.848.935 1.199.257.514.265.546.265 1.631-.008 1.19-.14 1.9-.497 2.667-.496 1.085-2.227 2.316-3.567 2.561-.265.049-.58.106-.687.13-.19.033-.19.058-.15.539.025.277.249 1.142.514 1.933.985 2.993 1.159 4.037 1.159 6.81 0 2.145-.067 2.797-.422 4.42-.828 3.703-2.484 6.85-4.959 9.387A18.015 18.015 0 0 1 32.44 38.4a19.283 19.283 0 0 1-14.411 1.02c-2.856-.922-5.364-2.496-7.59-4.747-2.326-2.349-4.147-5.546-4.95-8.645-.447-1.737-.53-2.544-.522-4.959.009-3.025.182-4.11 1.167-7.087.249-.767.472-1.623.497-1.9.042-.481.042-.506-.149-.538-.107-.025-.422-.082-.687-.131-1.34-.245-3.07-1.476-3.567-2.56-.356-.768-.489-1.477-.489-2.668-.008-1.02.009-1.133.207-1.55.38-.79 1.771-2.193 2.558-2.585.422-.212.546-.228 1.58-.253 1.681-.049 2.194.115 3.279 1.02.596.506 1.307 1.443 1.556 2.055.265.669.33.742.712.742.405 0 .935-.236 2.268-1.011 2.98-1.745 5.72-2.618 8.898-2.855.803-.057 2.913.033 3.807.164Z"/><path fill="#fff" d="M5.313 2.954c-.67.18-1.457.783-1.929 1.477-.836 1.247-.82 2.83.05 4.11.803 1.19 1.978 1.778 2.59 1.305.117-.09.216-.22.216-.285 0-.278-.38-.816-1.076-1.534-1.068-1.109-1.126-1.46-.414-2.495.414-.596.902-1.028 1.316-1.15.505-.147.886 0 1.548.587.786.701 1.333.889 1.747.603.463-.318.264-1.117-.423-1.729-.927-.831-2.441-1.198-3.625-.889ZM40.549 2.955a3.498 3.498 0 0 0-1.449.856c-.678.669-.885 1.272-.579 1.664.356.44.993.269 1.854-.506.662-.587 1.043-.734 1.548-.587.414.122.902.555 1.316 1.15.704 1.028.637 1.452-.422 2.52-.778.783-.985 1.093-.985 1.452 0 .334.248.514.728.514.514 0 .878-.18 1.383-.694.86-.889 1.39-2.39 1.216-3.441-.099-.571-.405-1.297-.736-1.721-.34-.44-1.143-.979-1.739-1.158-.62-.188-1.614-.212-2.135-.05ZM19.153 9.39c-.025.032-.737.056-1.573.065-1.771.016-3.501.122-4.114.244-1.647.326-3.145 1.958-4.03 4.396-.332.905-.779 2.618-.92 3.548-.157 1.036-.157 2.52 0 3.262.373 1.746 1.573 2.96 3.444 3.499 1.697.481 4.643.506 6.125.049.993-.302 1.498-.669 3.137-2.292 1.689-1.672 2.102-1.965 2.723-1.965.67 0 1.134.31 2.699 1.827 1.953 1.9 2.408 2.218 3.584 2.52.836.212 2.946.293 4.18.163 2.955-.318 4.635-1.615 5.074-3.923.43-2.243-.456-6.329-1.888-8.71-.38-.636-1.415-1.64-2.01-1.95-.738-.383-1.267-.497-2.691-.595-1.35-.098-13.666-.212-13.74-.139Zm14.75 1.908.935.057.596.636c.878.93 1.432 2.17 2.177 4.836.604 2.178.646 2.74.298 3.662-.521 1.362-1.192 1.982-2.467 2.3-.389.098-1.134.139-2.955.171l-2.433.05-1.912-1.917c-2.417-2.422-2.36-2.39-4.147-2.39-1.788 0-1.73-.032-4.147 2.382L17.936 23l-2.6-.032c-2.987-.05-3.103-.066-3.98-.718-.638-.473-.986-.88-1.25-1.444-.158-.334-.182-.522-.174-1.288.008-.995.124-1.59.728-3.638.63-2.128 1.143-3.221 1.821-3.841.588-.538.91-.644 2.185-.71 1.482-.081 18.02-.106 19.237-.032Z"/><path fill="#fff" d="M31.775 13.198c-.182.188-.231.318-.24.604-.008.521.232.815.696.848 1.001.073 1.307-.653.57-1.379-.405-.4-.686-.424-1.026-.073ZM15.287 13.117c-1.093.22-1.92 1.166-2.062 2.373-.05.391-.024.53.158.921.455.98 1.639 1.86 2.491 1.868a1.92 1.92 0 0 0 .82-.171c.521-.229 1.407-1.077 1.672-1.59.488-.971.099-2.235-.894-2.896-.654-.44-1.507-.636-2.185-.505Zm.885.831c.199.213.215.612.025.816-.165.188-.38.188-.538 0-.207-.236-.232-.416-.108-.718.141-.326.365-.367.621-.098Zm-1.308 1.265c.331.293.067.921-.397.921-.555 0-.704-.416-.29-.824.274-.269.464-.293.687-.097Zm2.724.187c.314.302.298.571-.034.685-.347.122-.67-.081-.703-.424-.05-.53.331-.669.737-.26Zm-1.316 1.28c.314.278.066.922-.348.922-.224 0-.58-.35-.58-.57 0-.4.605-.637.928-.351ZM30.354 14.805c-.505.09-.704.946-.323 1.386.165.188.265.228.587.228.332 0 .423-.04.63-.269.57-.628-.017-1.5-.895-1.345ZM33.662 14.87c-.231.155-.389.628-.322.97.14.75 1.142.89 1.506.204.174-.334.091-.644-.265-1.003-.315-.326-.62-.375-.919-.171ZM31.96 16.713c-.521.4-.43 1.264.15 1.51.364.146.546.097.827-.221.24-.285.282-.758.083-1.125-.199-.384-.687-.457-1.06-.164ZM22.588 24.118c-.695.115-1.109.392-1.399.963-.157.31-.173.905-.033 1.223.166.383.687 1.093 1.217 1.68.637.702.787.979.72 1.346-.066.408-.43.905-.753 1.044-.19.073-.596.106-1.308.106-1.192-.008-1.548.098-1.548.473 0 .481 1.316 1.33 2.07 1.33.215 0 .703-.115 1.125-.254.555-.195.878-.26 1.317-.26.438 0 .761.065 1.316.26 1.125.384 1.63.327 2.574-.318.463-.318.654-.587.588-.848-.083-.318-.456-.408-1.557-.391-.695.016-1.05-.017-1.258-.098-.347-.139-.712-.653-.77-1.085-.05-.367.067-.546.994-1.631 1.109-1.289 1.308-1.99.786-2.765-.455-.66-.803-.783-2.367-.815-.712-.009-1.49.008-1.714.04Z"/></svg>